<?xml version="1.0" encoding="utf-8"?>
<!-- Generator: Adobe Illustrator 26.1.0, SVG Export Plug-In . SVG Version: 6.00 Build 0)  -->
<svg version="1.1" id="Ebene_1" xmlns="http://www.w3.org/2000/svg" xmlns:xlink="http://www.w3.org/1999/xlink" x="0px" y="0px"
	 viewBox="0 0 42.3 42.3" style="enable-background:new 0 0 42.3 42.3;" xml:space="preserve">
<style type="text/css">
	.st0{fill-rule:evenodd;clip-rule:evenodd;fill:url(#SVGID_1_);}
</style>
<linearGradient id="SVGID_1_" gradientUnits="userSpaceOnUse" x1="7.7508" y1="21.1061" x2="34" y2="21.1061">
	<stop  offset="0" style="stop-color:#60A5FA"/>
	<stop  offset="1" style="stop-color:#1D4ED8"/>
</linearGradient>
<path class="st0" d="M20.9,4.2c7.2,0,13.1,3.4,13.1,7.5s-5.9,7.5-13.1,7.5S7.8,15.9,7.8,11.7S13.6,4.2,20.9,4.2z M31.6,19.5
	c0.9-0.5,1.7-1.1,2.4-1.8v3.4c0,4.1-5.9,7.5-13.1,7.5S7.8,25.2,7.8,21.1v-3.4c0.7,0.7,1.6,1.3,2.4,1.8c2.9,1.7,6.7,2.6,10.7,2.6
	S28.7,21.1,31.6,19.5z M7.8,27.1v3.4c0,4.1,5.9,7.5,13.1,7.5S34,34.6,34,30.5v-3.4c-0.7,0.7-1.6,1.3-2.4,1.8
	c-2.9,1.7-6.7,2.6-10.7,2.6s-7.8-0.9-10.7-2.6C9.3,28.4,8.5,27.8,7.8,27.1z"/>
</svg>
