<?xml version="1.0" encoding="utf-8"?>
<!-- Generator: Adobe Illustrator 26.1.0, SVG Export Plug-In . SVG Version: 6.00 Build 0)  -->
<svg version="1.1" id="Ebene_1" xmlns="http://www.w3.org/2000/svg" xmlns:xlink="http://www.w3.org/1999/xlink" x="0px" y="0px"
	 viewBox="0 0 42.3 42.3" style="enable-background:new 0 0 42.3 42.3;" xml:space="preserve">
<style type="text/css">
	.st0{fill:url(#SVGID_1_);}
</style>
<linearGradient id="SVGID_1_" gradientUnits="userSpaceOnUse" x1="6.3474" y1="20.8992" x2="36.7474" y2="20.8992">
	<stop  offset="0" style="stop-color:#60A5FA"/>
	<stop  offset="1" style="stop-color:#1D4ED8"/>
</linearGradient>
<path class="st0" d="M25.3,5.5c0.1-0.6-0.2-1.3-0.7-1.6c-0.6-0.3-1.3-0.2-1.7,0.3L6.7,22.3c-0.4,0.4-0.5,1-0.2,1.5
	c0.2,0.5,0.7,0.8,1.3,0.8h12.5l-2.5,11.6c-0.1,0.6,0.2,1.3,0.7,1.6c0.6,0.3,1.3,0.2,1.7-0.3l16.2-18.1c0.4-0.4,0.5-1,0.2-1.5
	c-0.2-0.5-0.7-0.8-1.3-0.8H22.8L25.3,5.5z"/>
</svg>
