<?xml version="1.0" encoding="utf-8"?>
<!-- Generator: Adobe Illustrator 26.1.0, SVG Export Plug-In . SVG Version: 6.00 Build 0)  -->
<svg version="1.1" id="Ebene_1" xmlns="http://www.w3.org/2000/svg" xmlns:xlink="http://www.w3.org/1999/xlink" x="0px" y="0px"
	 viewBox="0 0 42.3 42.3" style="enable-background:new 0 0 42.3 42.3;" xml:space="preserve">
<style type="text/css">
	.st0{fill:url(#SVGID_1_);}
	.st1{fill-rule:evenodd;clip-rule:evenodd;fill:url(#SVGID_00000130616739732087572960000006170643068061065136_);}
	.st2{fill-rule:evenodd;clip-rule:evenodd;fill:url(#SVGID_00000092445736241359473210000000486033394693182388_);}
</style>
<linearGradient id="SVGID_1_" gradientUnits="userSpaceOnUse" x1="8.369" y1="17.3147" x2="33.5728" y2="17.3147">
	<stop  offset="0" style="stop-color:#60A5FA"/>
	<stop  offset="1" style="stop-color:#1D4ED8"/>
</linearGradient>
<path class="st0" d="M21,3.6c-7,0-12.6,5.6-12.6,12.6c0,4.7,2.5,8.7,6.3,10.9c1,0.6,1.7,1.5,1.7,2.5c0,0.5,0.4,1,0.9,1.1
	c0.5,0.1,1.1,0.2,1.6,0.3c0.5,0.1,0.9-0.3,0.9-0.8V23c-0.5-0.1-1-0.1-1.4-0.3c-0.6-0.2-1-0.8-0.8-1.4c0.2-0.6,0.8-1,1.4-0.8
	c0.6,0.2,1.3,0.3,2,0.3c0.7,0,1.4-0.1,2-0.3c0.6-0.2,1.2,0.2,1.4,0.8c0.2,0.6-0.2,1.2-0.8,1.4c-0.5,0.1-0.9,0.2-1.4,0.3v7.1
	c0,0.5,0.4,0.9,0.9,0.8c0.5-0.1,1.1-0.2,1.6-0.3c0.5-0.1,0.9-0.6,0.9-1.1c0-0.9,0.7-1.9,1.7-2.5c3.8-2.2,6.3-6.2,6.3-10.9
	C33.6,9.3,27.9,3.6,21,3.6z"/>
<linearGradient id="SVGID_00000042731617299149824610000003152084735189231777_" gradientUnits="userSpaceOnUse" x1="16.3863" y1="33.2561" x2="25.5555" y2="33.2561">
	<stop  offset="0" style="stop-color:#60A5FA"/>
	<stop  offset="1" style="stop-color:#1D4ED8"/>
</linearGradient>
<path style="fill-rule:evenodd;clip-rule:evenodd;fill:url(#SVGID_00000042731617299149824610000003152084735189231777_);" d="
	M16.4,32.9c0.1-0.6,0.7-1,1.3-0.9c1,0.2,2.1,0.3,3.2,0.3c1.1,0,2.2-0.1,3.2-0.3c0.6-0.1,1.2,0.3,1.3,0.9c0.1,0.6-0.3,1.2-0.9,1.3
	c-1.2,0.2-2.4,0.3-3.7,0.3c-1.3,0-2.5-0.1-3.7-0.3C16.7,34.1,16.3,33.5,16.4,32.9z"/>
<linearGradient id="SVGID_00000164494781300237489570000007911283285080221332_" gradientUnits="userSpaceOnUse" x1="17.5285" y1="36.7968" x2="24.4133" y2="36.7968">
	<stop  offset="0" style="stop-color:#60A5FA"/>
	<stop  offset="1" style="stop-color:#1D4ED8"/>
</linearGradient>
<path style="fill-rule:evenodd;clip-rule:evenodd;fill:url(#SVGID_00000164494781300237489570000007911283285080221332_);" d="
	M17.5,36.6c0.1-0.6,0.6-1.1,1.3-1c0.7,0.1,1.4,0.1,2.2,0.1c0.7,0,1.5,0,2.2-0.1c0.6-0.1,1.2,0.4,1.3,1c0.1,0.6-0.4,1.2-1,1.3
	C22.6,38,21.8,38,21,38c-0.8,0-1.6,0-2.4-0.1C17.9,37.8,17.5,37.3,17.5,36.6z"/>
</svg>
